# xmcd
#
# Track frame offsets:
#	150
#	18563
#	38478
#	61235
#	75703
#	95323
#	114333
#	133258
#	145601
#	167561
#
# Disc length: 2556
#
# Revision: 1
# Processed by: cddbd v1.5.2PL0 Copyright (c) Steve Scherf et al.
# Submitted via: kJams Pro (development) 1.0patch48.45
#
DISCID=7609fa0a
DTITLE=Compilation - Hot Country Girls
DYEAR=1900
DGENRE=Country
TTITLE0=Trisha Yearwood - She's in Love with the Boy
TTITLE1=Trisha Yearwood - The Song Remembers When
TTITLE2=Trisha Yearwood and Don Henley - Walkaway Joe
TTITLE3=Faith Hill - Let's Go to Vegas
TTITLE4=Faith Hill - The Secret of Life
TTITLE5=Faith Hill - Breathe
TTITLE6=Jamie O'Neal - There Is No Arizona
TTITLE7=Mindy McCready - A Girl's Gotta Do (What a Girl's Gotta Do)
TTITLE8=Shania Twain - You Win My Love
TTITLE9=Shania Twain - From This Moment On
EXTD=
EXTT0=
EXTT1=
EXTT2=
EXTT3=
EXTT4=
EXTT5=
EXTT6=
EXTT7=
EXTT8=
EXTT9=
PLAYORDER=
